<svg xmlns="http://www.w3.org/2000/svg" width="31" height="31" viewBox="0 0 28 28">
  <g transform="rotate(-35, 14, 14)">
    <!-- Rocket body -->
    <path d="M14 3 C14 3 10 9 10 15 L12 17 L16 17 L18 15 C18 9 14 3 14 3 Z" fill="#e2e8f0" stroke="#94a3b8" stroke-width="0.5"/>
    <!-- Nose cone -->
    <path d="M14 3 C14 3 11.5 7 11 9 L14 5 L17 9 C16.5 7 14 3 14 3 Z" fill="#cbd5e1"/>
    <!-- Window -->
    <circle cx="14" cy="11" r="1.8" fill="#6366f1" stroke="#4338ca" stroke-width="0.4"/>
    <circle cx="14" cy="11" r="0.8" fill="#a5b4fc" opacity="0.6"/>
    <!-- Left fin -->
    <path d="M10 15 L6.5 18.5 L10 17 Z" fill="#ef4444"/>
    <!-- Right fin -->
    <path d="M18 15 L21.5 18.5 L18 17 Z" fill="#ef4444"/>
    <!-- Flame -->
    <path d="M12 17 L13 22 L14 19 L15 22 L16 17 Z" fill="#f59e0b" opacity="0.9"/>
    <path d="M12.8 17 L13.5 20 L14 18.5 L14.5 20 L15.2 17 Z" fill="#fbbf24"/>
  </g>
</svg>
